<svg width="49" height="52" viewBox="0 0 49 52" fill="none" xmlns="http://www.w3.org/2000/svg">
<path d="M15.3337 25.6411L14.1924 33.8707C14.1504 34.1741 14.1916 34.4832 14.3116 34.765C14.4316 35.0468 14.6259 35.2907 14.8737 35.4707C15.1215 35.6507 15.4136 35.7601 15.7187 35.787C16.0238 35.814 16.3305 35.7575 16.606 35.6238L24.0559 31.9958L31.5301 35.6246C31.8058 35.7581 32.1125 35.8143 32.4176 35.787C32.7227 35.7598 33.0146 35.6503 33.2623 35.4702C33.51 35.29 33.7041 35.046 33.824 34.7641C33.9439 34.4823 33.985 34.1732 33.9429 33.8698L32.7948 25.6638L38.5545 19.6776C38.7668 19.4568 38.9153 19.1826 38.9839 18.884C39.0526 18.5855 39.0389 18.274 38.9443 17.9826C38.8497 17.6913 38.6777 17.4311 38.4468 17.2299C38.2158 17.0287 37.9346 16.8939 37.633 16.8401L29.4731 15.3966L25.559 8.06844C25.4148 7.79819 25.1999 7.5722 24.9372 7.41463C24.6745 7.25706 24.374 7.17383 24.0676 7.17383C23.7613 7.17383 23.4608 7.25706 23.1981 7.41463C22.9354 7.5722 22.7205 7.79819 22.5763 8.06844L18.6814 15.3823L10.5022 16.8401C10.2007 16.8939 9.91944 17.0287 9.6885 17.2299C9.45756 17.4311 9.28561 17.6913 9.19101 17.9826C9.0964 18.274 9.08269 18.5855 9.15134 18.884C9.22 19.1826 9.36843 19.4568 9.5808 19.6776L15.3337 25.6411ZM18.9852 17.0743C19.2369 17.0295 19.4751 16.928 19.6817 16.7775C19.8883 16.627 20.058 16.4314 20.1778 16.2056L24.0425 8.87659L24.8011 8.47269L24.0433 8.87719L27.9575 16.2053C28.0775 16.4314 28.2474 16.6272 28.4544 16.7777C28.6614 16.9282 28.9 17.0296 29.152 17.074L37.3161 18.4855L31.5573 24.4718C31.3789 24.6558 31.245 24.8781 31.1657 25.1217C31.0864 25.3653 31.0639 25.6239 31.0999 25.8775L32.2799 34.0777L24.8065 30.4497C24.5766 30.337 24.324 30.2785 24.068 30.2785C23.812 30.2785 23.5593 30.337 23.3294 30.4497L15.8947 34.1062L17.0369 25.875C17.0723 25.6218 17.0495 25.3638 16.9702 25.1206C16.8909 24.8775 16.7573 24.6556 16.5795 24.4718L10.8045 18.5318L18.9852 17.0743Z" fill="white"/>
<path d="M44.9504 26.4677C45.3477 24.8363 45.5497 23.1635 45.552 21.4844C45.552 15.7864 43.2885 10.3217 39.2594 6.29263C35.2303 2.26353 29.7656 0 24.0676 0C18.3696 0 12.905 2.26353 8.87588 6.29263C4.84678 10.3217 2.58326 15.7864 2.58326 21.4844C2.58547 23.1634 2.78762 24.8362 3.18542 26.4674C1.52322 27.9368 0.432116 29.9451 0.103852 32.1393C-0.224413 34.3335 0.23117 36.5732 1.39053 38.4648C2.5499 40.3564 4.33886 41.7788 6.44304 42.4821C8.54721 43.1855 10.832 43.1247 12.8958 42.3105V50.7031C12.8958 50.8279 12.923 50.9512 12.9754 51.0644C13.0279 51.1776 13.1044 51.278 13.1996 51.3587C13.2948 51.4393 13.4064 51.4983 13.5267 51.5315C13.647 51.5646 13.7731 51.5712 13.8962 51.5507L24.0676 49.8555L34.2391 51.5507C34.2857 51.5584 34.3329 51.5623 34.3801 51.5625C34.608 51.5625 34.8266 51.472 34.9878 51.3108C35.149 51.1496 35.2395 50.931 35.2395 50.7031V42.3105C37.303 43.1228 39.5867 43.1824 41.6898 42.4786C43.7928 41.7748 45.5807 40.3528 46.7397 38.462C47.8986 36.5713 48.3545 34.3327 48.0273 32.1393C47.7001 29.9459 46.6107 27.9379 44.9504 26.4677ZM24.0676 1.71875C29.308 1.72457 34.3321 3.80889 38.0376 7.5144C41.7431 11.2199 43.8274 16.244 43.8332 21.4844C43.8348 23.1955 43.6104 24.8993 43.166 26.5517C41.9852 30.9796 39.3077 34.8621 35.5886 37.5395C35.0606 37.9195 34.5138 38.2728 33.9504 38.5981L33.9491 38.599L33.9429 38.603C33.5241 38.8506 33.0819 39.073 32.7054 39.2576C30.0149 40.5685 27.0613 41.2498 24.0685 41.25C21.0757 41.2501 18.122 40.5691 15.4314 39.2585C15.0537 39.073 14.6115 38.8506 14.1853 38.5981C13.6204 38.272 13.0722 37.9178 12.5428 37.5366C8.82416 34.8581 6.14772 30.9746 4.96836 26.5461C4.52425 24.8956 4.30019 23.1936 4.30201 21.4844C4.30783 16.244 6.39214 11.2199 10.0977 7.5144C13.8032 3.80889 18.8272 1.72457 24.0676 1.71875ZM9.45825 41.25C7.9629 41.2502 6.49955 40.8168 5.24543 40.0024C3.99131 39.188 3.00021 38.0275 2.39214 36.6613C1.78407 35.2952 1.58512 33.782 1.81938 32.3052C2.05364 30.8283 2.71107 29.451 3.71205 28.34C3.72983 28.3931 3.75415 28.4432 3.7722 28.4964C3.9543 29.0236 4.1523 29.5448 4.37488 30.0546C4.39379 30.0981 4.41519 30.1405 4.43444 30.1835C4.66016 30.6914 4.90529 31.1896 5.1698 31.6781C5.19318 31.7211 5.2144 31.7656 5.23855 31.8086C5.50814 32.2985 5.80033 32.7759 6.10704 33.2434C6.15439 33.3157 6.20071 33.3885 6.24901 33.4603C6.55471 33.9144 6.87741 34.3563 7.21709 34.786C7.27201 34.8556 7.32769 34.9241 7.38355 34.9931C7.73358 35.4257 8.09795 35.8466 8.48046 36.2513C8.52162 36.2948 8.56459 36.3365 8.6061 36.3802C9.41516 37.222 10.2915 37.9965 11.2265 38.6959C11.2819 38.7375 11.336 38.7805 11.3919 38.8214C11.8369 39.1475 12.2952 39.4554 12.7669 39.7453C12.811 39.7726 12.8516 39.805 12.8958 39.832V40.4447C11.8272 40.9741 10.6508 41.2497 9.45825 41.25ZM14.6145 40.9578V40.7715L14.6747 40.8017C17.3377 42.1057 20.245 42.8359 23.2083 42.9449V48.2565L14.6145 49.6885V40.9578ZM33.5207 49.6885L24.927 48.2565V42.9449C27.8905 42.8358 30.798 42.1054 33.4612 40.801C33.4804 40.7918 33.5006 40.7817 33.5207 40.7717V49.6885ZM38.677 41.25C37.4844 41.2496 36.3081 40.9739 35.2395 40.4443V39.832C35.2818 39.8062 35.3204 39.7755 35.3625 39.7494C35.8336 39.4579 36.2924 39.1496 36.7389 38.8245C36.7991 38.7806 36.8569 38.7344 36.9165 38.6898C37.3795 38.3431 37.8313 37.9825 38.2637 37.6004L38.2709 37.5938C38.7052 37.2096 39.1198 36.805 39.5212 36.3879C39.5665 36.3408 39.6133 36.2954 39.6582 36.248C40.0389 35.8451 40.4013 35.4263 40.7496 34.9959C40.8064 34.9259 40.863 34.8563 40.9188 34.7855C41.2589 34.3547 41.5823 33.9118 41.8891 33.4568C41.935 33.3887 41.979 33.3193 42.0241 33.2506C42.3341 32.7779 42.6293 32.2967 42.9015 31.801C42.9199 31.7677 42.9363 31.7333 42.9545 31.6998C43.2284 31.1949 43.482 30.6792 43.7153 30.1529C43.7281 30.1239 43.7424 30.0958 43.7551 30.067C43.9829 29.546 44.1854 29.0139 44.3708 28.475C44.3865 28.4293 44.4076 28.3858 44.423 28.34C45.424 29.4509 46.0815 30.8282 46.3158 32.305C46.55 33.7819 46.3511 35.2951 45.7431 36.6612C45.135 38.0274 44.1439 39.1879 42.8898 40.0024C41.6357 40.8168 40.1724 41.2502 38.677 41.25Z" fill="white"/>
</svg>
